PathFileType	4	(X/Y/Z)	C:\Users\Basilio\Documents\Thesis Gigler\squatting_fais\c3dfiles\047\SJ_pre1\markers_experimental.trc
DataRate	CameraRate	NumFrames	NumMarkers	Units	OrigDataRate	OrigDataStartFrame	OrigNumFrames
200.000000	200.000000	4	61	mm	200.000000	1239	1653
Frame#	Time	FHD			LBHD			RBHD			C7			T10			CLAV			LSHO			LUUPA			LMUPA			LDUPA			LLEP			LMEP			LRAD			LUL			LRFIN			RSHO			RUPA1			RMUPA			RDUPA			RLEP			RMEP			RRAD			RUL			RUFIN			LASI			RASI			USACR			LSACR			RSACR			LTHI1			LTHI2			LTHI3			LTHI4			LLFC			LMFC			LTIB1			LTIB2			LTIB3			LTIB4			LLMAL			LMMAL			LMT1			LMT2			LMT5			RTHI			RTHI2			RTHI3			RTHI4			RLFC			RMFC			RTIB1			RTIB2			RTIB3			RTIB4			RLMAL			RMMAL			RHEE			RMT1			RMT2			RMT5			*60			
		X1	Y1	Z1	X2	Y2	Z2	X3	Y3	Z3	X4	Y4	Z4	X5	Y5	Z5	X6	Y6	Z6	X7	Y7	Z7	X8	Y8	Z8	X9	Y9	Z9	X10	Y10	Z10	X11	Y11	Z11	X12	Y12	Z12	X13	Y13	Z13	X14	Y14	Z14	X15	Y15	Z15	X16	Y16	Z16	X17	Y17	Z17	X18	Y18	Z18	X19	Y19	Z19	X20	Y20	Z20	X21	Y21	Z21	X22	Y22	Z22	X23	Y23	Z23	X24	Y24	Z24	X25	Y25	Z25	X26	Y26	Z26	X27	Y27	Z27	X28	Y28	Z28	X29	Y29	Z29	X30	Y30	Z30	X31	Y31	Z31	X32	Y32	Z32	X33	Y33	Z33	X34	Y34	Z34	X35	Y35	Z35	X36	Y36	Z36	X37	Y37	Z37	X38	Y38	Z38	X39	Y39	Z39	X40	Y40	Z40	X41	Y41	Z41	X42	Y42	Z42	X43	Y43	Z43	X44	Y44	Z44	X45	Y45	Z45	X46	Y46	Z46	X47	Y47	Z47	X48	Y48	Z48	X49	Y49	Z49	X50	Y50	Z50	X51	Y51	Z51	X52	Y52	Z52	X53	Y53	Z53	X54	Y54	Z54	X55	Y55	Z55	X56	Y56	Z56	X57	Y57	Z57	X58	Y58	Z58	X59	Y59	Z59	X60	Y60	Z60	X61	Y61	Z61	

1240	6.195	150.6550445556641	1214.756225585938	-844.034118652344	-7.321616649627687	1250.894287109375	-930.5893554687502	-33.47090911865235	1256.944702148438	-784.6816406250002	-114.5376663208008	1133.5576171875	-869.4333496093752	-344.5061340332032	917.1318969726565	-870.1654052734377	-20.20932960510254	989.7362060546877	-861.916687011719	-33.32331085205079	1039.744384765625	-1043.331787109375	-171.1537780761719	1032.299072265625	-1174.506591796875	-164.6973724365235	985.7625732421877	-1194.303833007813	-215.9526824951172	1003.014526367188	-1220.832153320313	-258.0450744628907	951.5385742187502	-1257.157470703125	-323.4099731445313	980.1010742187502	-1187.895874023438	-335.0781555175782	788.1589355468752	-1072.996459960938	-325.6870117187501	731.9917602539064	-1127.188598632813	-294.6792907714844	746.2827148437501	-1033.823852539063	-57.52135086059572	1066.149047851563	-697.9246215820314	-217.1649322509766	1064.193603515625	-574.9150390625001	-215.3127593994141	1019.825073242188	-552.8435668945314	-268.5250244140626	1039.417358398438	-532.7187500000001	-313.5315246582032	986.6586914062502	-498.7879333496095	-373.6884460449219	1002.401550292969	-568.6214599609376	-301.9157714843751	800.8032836914065	-669.3359375000001	-307.1920776367188	754.2034301757814	-608.2952270507814	-283.8074645996094	740.3694458007814	-707.9950561523439	-414.0972595214845	644.4904174804689	-974.9291992187502	-366.1635437011719	653.4837036132814	-744.1759033203126	-456.0133361816407	824.9237060546877	-873.3452148437502	-482.0918273925782	807.501647949219	-902.3496093750002	-483.7395324707032	806.725280761719	-844.1350097656252	-428.5704650878907	638.2255249023439	-1091.091918945313	-348.4747924804688	624.9812622070314	-1107.769409179688	-318.9410095214844	654.2300415039064	-1082.4267578125	-325.4214477539063	575.7164916992189	-1133.665649414063	-203.9720916748047	461.8429260253907	-1165.433349609375	-150.3775634765625	442.0303039550782	-1052.90576171875	-194.4537658691407	280.4377746582032	-1094.91162109375	-232.1748199462891	248.2240295410157	-1167.072998046875	-209.2305450439454	237.1615905761719	-1128.630493164063	-250.7238769531251	168.4433898925782	-1100.802978515625	-334.8638305664063	96.48748779296878	-1148.154541015625	-301.2647705078126	101.4824295043946	-1062.524291992188	-183.3737182617188	64.26229095458986	-1111.903076171875	-193.6950225830079	63.83063888549806	-1154.631103515625	-240.2621002197266	45.55134582519532	-1194.54833984375	-414.9096679687501	603.6437377929689	-632.2497558593751	-351.1644592285157	598.8287353515626	-614.0949096679689	-329.8771972656251	622.3443603515626	-621.4332275390626	-309.0408630371094	528.7221679687501	-595.7970581054689	-192.2943572998047	446.1076660156251	-586.1166992187501	-139.4102478027344	448.8181762695314	-704.7718505859376	-165.772933959961	322.1693420410157	-606.0471191406251	-261.0829162597657	267.1630249023438	-592.4079589843751	-218.1739044189454	252.7893981933594	-601.6721191406251	-220.0222625732422	208.1026763916016	-640.3133544921876	-333.4054565429688	88.88976287841798	-642.7196044921876	-285.5242919921876	102.5138015747071	-723.5923461914064	-384.2588806152345	52.11444091796876	-711.0753173828126	-173.5684661865235	57.00538635253908	-670.9757690429689	-185.829833984375	58.11241912841798	-625.8125000000001	-245.602767944336	30.70195007324219	-582.8991088867189	nan	nan	nan	
1241	6.2	150.6815643310547	1214.72119140625	-844.190856933594	-7.261812686920168	1250.824340820313	-930.8599853515627	-33.4813346862793	1256.87841796875	-784.8289794921877	-114.6946640014649	1133.829223632813	-869.5617675781252	-344.7080688476563	917.1924438476565	-870.4637451171877	-20.30499076843262	989.755798339844	-862.104431152344	-33.27464675903321	1039.715698242188	-1043.593017578125	-171.2057189941407	1032.230346679688	-1174.706787109375	-164.7900085449219	985.6231689453127	-1194.4755859375	-216.1357574462891	1002.86181640625	-1220.912841796875	-258.0796813964844	951.3635864257815	-1257.340942382813	-323.5166320800782	980.1187744140627	-1188.042114257813	-335.2062683105469	788.0899658203127	-1073.183837890625	-325.8075256347657	731.8117675781251	-1127.362548828125	-294.7542114257813	746.2633666992189	-1034.051635742188	-57.66244888305665	1066.184936523438	-698.0619506835939	-217.4131011962891	1064.3779296875	-575.1330566406251	-215.5289154052735	1019.881408691406	-553.1157226562501	-268.7603149414063	1039.442626953125	-532.9902343750001	-313.7420349121094	986.707214355469	-498.932342529297	-374.0528564453126	1002.573425292969	-568.8817749023439	-302.0649108886719	800.7703857421877	-669.4478149414064	-307.4109497070313	754.3051147460939	-608.4042968750001	-284.1461486816407	740.3029785156251	-707.9644775390626	-413.4790039062501	644.6890869140626	-975.0301513671877	-365.7424011230469	654.0731201171876	-744.3232421875001	-456.1001281738282	825.1525878906252	-873.6856079101565	-482.2794799804689	807.5109863281252	-902.5969848632815	-483.9425048828126	806.7690429687502	-844.4294433593752	-428.6242065429689	638.1110229492189	-1091.392822265625	-348.5266418457032	624.7929687500001	-1108.164672851563	-318.7871093750001	654.2303466796876	-1082.893676757813	-325.2601623535157	575.7767333984376	-1133.997924804688	-203.9544525146485	461.7288513183595	-1165.771850585938	-150.4631652832032	442.1492919921876	-1053.122314453125	-194.4947662353516	280.3809509277344	-1094.919677734375	-232.1231689453126	248.2085723876954	-1167.252685546875	-208.8056335449219	236.8990173339844	-1128.785522460938	-250.6289367675782	168.4742584228516	-1100.979370117188	-334.8303833007813	96.44868469238284	-1148.217041015625	-301.2350769042969	101.4690475463867	-1062.65185546875	-183.338623046875	64.30171966552736	-1111.940063476563	-193.6519775390626	63.79518127441408	-1154.662109375	-240.3399963378907	45.55031204223634	-1194.599975585938	-415.0104980468751	603.6330566406251	-632.4746704101564	-351.3284606933594	598.8259277343751	-614.2717895507814	-329.9674987792969	622.3884277343751	-621.5291137695314	-309.3491821289063	528.6939697265626	-595.6638183593751	-192.4066619873047	446.1669311523439	-586.2361450195314	-139.5505676269532	448.8020629882814	-704.6874389648439	-165.8574981689453	322.2285766601563	-606.0864868164064	-261.1941833496094	267.2402038574219	-592.3928222656251	-218.2396545410157	252.8094940185547	-601.6546630859376	-220.0403442382813	208.1240997314454	-640.3600463867189	-333.4568786621094	88.84642028808595	-642.6722412109376	-285.5151367187501	102.4623184204102	-723.5678100585939	-384.3170776367189	52.16951370239259	-711.0462646484376	-173.6146850585938	56.99934387207033	-670.9963378906251	-185.8228912353516	58.10570144653322	-625.7725219726564	-245.5818786621094	30.67118072509766	-582.8962402343751	nan	nan	nan	
1242	6.205	150.6677398681641	1214.621459960938	-844.2827148437502	-7.207544803619387	1250.71826171875	-931.0676269531252	-33.43515396118165	1256.859252929688	-785.1400146484377	-114.698959350586	1133.841186523438	-869.8369140625002	-345.0573730468751	917.3228149414065	-870.6419067382815	-20.34159469604493	989.7630615234377	-862.2557373046877	-33.31171798706055	1039.619262695313	-1043.75244140625	-171.2843780517578	1032.175170898438	-1174.908935546875	-164.6224060058594	985.6071777343752	-1194.875854492188	-216.0898742675782	1002.820739746094	-1221.140014648438	-258.1411132812501	951.2037353515627	-1257.52490234375	-323.6050109863282	980.022399902344	-1188.163818359375	-335.3847351074219	787.9616699218752	-1073.380004882813	-326.1636962890626	731.5325317382814	-1127.513549804688	-294.9270324707032	746.1586303710939	-1034.249755859375	-57.72861862182619	1066.272827148438	-698.4245605468751	-217.7024688720704	1064.515747070313	-575.4178466796876	-215.7203979492188	1019.967102050781	-553.3074340820314	-269.0129089355469	1039.574462890625	-533.2769165039064	-313.9548034667969	986.7797851562502	-499.2190551757814	-374.3255004882813	1002.77294921875	-569.1992797851564	-302.2759704589844	800.762145996094	-669.5508422851564	-307.5588073730469	754.3211059570314	-608.6419067382814	-284.4489135742188	740.2868652343751	-708.1260375976564	-413.3880615234376	644.3289794921876	-974.6907348632815	-366.2836608886719	654.3241577148439	-743.9510498046876	-456.2813110351564	825.088562011719	-874.0479736328127	-482.306610107422	807.4736938476565	-902.911071777344	-484.1400146484376	806.8640747070315	-844.648376464844	-428.596893310547	637.9899902343751	-1091.6572265625	-348.6119995117188	624.7306518554689	-1108.498168945313	-318.9166870117188	654.1906127929689	-1083.229125976563	-325.2862548828126	575.6946411132814	-1134.30126953125	-204.0154724121094	461.7032775878907	-1166.07470703125	-150.4589233398438	442.0646972656251	-1053.241943359375	-194.5117187500001	280.4106140136719	-1095.217041015625	-232.1116790771485	248.1508941650391	-1167.361328125	-209.2405548095704	237.1099700927735	-1128.822265625	-250.6290130615235	168.4200134277344	-1101.072875976563	-334.8811340332032	96.39692687988284	-1148.294799804688	-301.2815551757813	101.4847183227539	-1062.647583007813	-183.3836975097657	64.23828887939455	-1111.98388671875	-193.6431274414063	63.760799407959	-1154.673217773438	-240.3875885009766	45.55136108398438	-1194.63818359375	-415.1054687500001	603.6848144531251	-632.5786743164064	-351.4895935058594	598.8874511718751	-614.2935180664064	-330.0814514160157	622.4160156250001	-621.6665039062501	-309.4161682128907	528.6654052734376	-595.9360961914064	-192.5713500976563	446.2846069335939	-586.1705932617189	-139.6495056152344	448.7871704101564	-704.7358398437501	-165.9058074951172	322.2916564941407	-606.1582641601564	-261.2804565429688	267.3759155273438	-592.5209350585939	-218.3161621093751	252.8402862548829	-601.6699829101564	-220.0937805175782	208.1801757812501	-640.3088378906251	-333.4705505371094	88.85488128662111	-642.6426391601564	-285.5564880371094	102.4617309570313	-723.5425415039064	-384.3414306640626	52.12107849121095	-711.0585937500001	-173.5962219238282	57.06518936157228	-670.9916381835939	-185.8280944824219	58.14224243164064	-625.7675170898439	-245.6080627441407	30.69006347656251	-582.8615112304689	nan	nan	nan	
1243	6.21	150.7357635498047	1214.534545898438	-844.5614013671877	-7.149096488952638	1250.733764648438	-931.2295532226565	-33.30454635620118	1256.908935546875	-785.425476074219	-114.8461074829102	1133.880737304688	-870.1927490234377	-345.1840209960938	917.3756103515627	-870.9403076171877	-20.38413238525391	989.7815551757815	-862.4417114257815	-33.34779739379884	1039.556884765625	-1043.957153320313	-171.1968231201172	1032.0380859375	-1175.2138671875	-164.6314849853516	985.4177246093752	-1195.040161132813	-216.0228881835938	1002.602111816406	-1221.394897460938	-258.0574951171876	951.0345458984377	-1257.737182617188	-323.5645141601563	979.8157958984377	-1188.401245117188	-335.4314270019532	787.851013183594	-1073.611206054688	-326.3439025878907	731.3644409179689	-1127.619140625	-295.0876770019532	746.2212524414064	-1034.4443359375	-57.83999252319337	1066.308471679688	-698.6037597656251	-217.8872528076172	1064.71630859375	-575.7742919921876	-216.1629333496094	1020.167297363281	-553.3395385742189	-269.2947082519532	1039.6669921875	-533.4976196289064	-314.1621398925782	986.9827880859377	-499.7515869140626	-374.5620117187501	1002.718078613281	-569.5350341796876	-302.2840576171876	800.8918457031252	-669.8787841796876	-307.9882812500001	754.3717651367189	-608.7149658203126	-284.5483703613282	740.4434204101564	-708.9267578125001	-411.8196716308595	644.7907714843751	-974.6728515625002	-365.3678588867188	655.3942871093751	-743.8990478515626	-456.771209716797	825.178894042969	-874.279235839844	-482.4333801269532	807.425964355469	-903.1983032226565	-484.3391418457032	806.861755371094	-844.9212036132815	-428.5715637207032	638.1887207031251	-1092.456665039063	-348.6858520507813	624.6108398437501	-1108.759887695313	-319.1305541992188	654.1334838867189	-1083.370361328125	-325.3056640625001	575.6005859375001	-1134.61181640625	-204.1783447265626	461.6038818359376	-1166.189453125	-150.0896759033203	442.2521057128907	-1053.524658203125	-194.4989929199219	280.4102172851563	-1095.38232421875	-232.1930541992188	248.0564117431641	-1167.620239257813	-209.1079711914063	237.1571502685547	-1129.2197265625	-250.5979766845704	168.4290466308594	-1101.20458984375	-334.8543395996094	96.33377075195315	-1148.3046875	-301.3371887207032	101.4612884521485	-1062.6904296875	-183.3945617675782	64.28512573242189	-1112.020263671875	-193.6746826171876	63.80393981933595	-1154.701293945313	-240.3698730468751	45.47004318237305	-1194.633422851563	-415.133026123047	603.6708374023439	-632.8843994140626	-351.5999145507813	598.8284912109376	-614.6397705078126	-330.1303405761719	622.3983764648439	-621.7684326171876	-309.5131835937501	528.7315063476564	-596.2604370117189	-192.6678161621094	446.3414916992189	-586.2927246093751	-139.7071533203125	448.8024902343751	-704.7524414062501	-165.9821166992188	322.3144836425782	-606.1995849609376	-261.3500976562501	267.4367675781251	-592.5906982421876	-218.3863067626954	252.8576660156251	-601.6240844726564	-220.2072906494141	208.2005004882813	-640.3436889648439	-333.4701538085938	88.85709381103517	-642.6860351562501	-285.5524597167969	102.4684295654297	-723.5529174804689	-384.5969543457032	52.14527511596681	-710.9216918945314	-173.5678863525391	57.095027923584	-670.9263916015626	-185.8396606445313	58.0848960876465	-625.7826538085939	-245.5982666015626	30.71048545837403	-582.8915405273439	nan	nan	nan	
